<svg id="Capa_1" data-name="Capa 1" xmlns="http://www.w3.org/2000/svg" viewBox="0 0 306.26 277.48"><defs><style>.cls-1{fill:#fff;}</style></defs><title>PaÌgina web final _ Dr.Edgar Salas</title><path class="cls-1" d="M213.14,78.86H171.65a14.71,14.71,0,0,0-9.75,3.69V75.09H75.67v75.7a11.28,11.28,0,0,0-7.11,10.47v9.29a11.28,11.28,0,0,0,11.27,11.27h9.78c0,.09,0,.17,0,.26a20.32,20.32,0,0,0,40.63,0,2.28,2.28,0,0,0,0-.26h52.94a2.28,2.28,0,0,0,0,.26,20.32,20.32,0,0,0,40.63,0,20.56,20.56,0,0,0-.19-2.61,24.58,24.58,0,0,0,14.15-22.21V103.42A24.59,24.59,0,0,0,213.14,78.86ZM80.72,80.14h76.13V150H80.72Zm29.19,117.2a15.26,15.26,0,1,1,15.26-15.26A15.28,15.28,0,0,1,109.91,197.34Zm93.52,0a15.26,15.26,0,1,1,15.27-15.26A15.28,15.28,0,0,1,203.43,197.34Zm29.23-40.08a19.53,19.53,0,0,1-10.39,17.24,20.29,20.29,0,0,0-38.42,2.28H129.49a20.28,20.28,0,0,0-39.17,0H79.83a6.23,6.23,0,0,1-6.22-6.23v-9.29A6.23,6.23,0,0,1,79.83,155H161.9V93.66a9.76,9.76,0,0,1,9.75-9.75h41.49a19.54,19.54,0,0,1,19.52,19.51Z"/><path class="cls-1" d="M109.91,165.23a16.85,16.85,0,1,0,16.85,16.85A16.86,16.86,0,0,0,109.91,165.23Zm0,25a8.17,8.17,0,1,1,8.16-8.16A8.17,8.17,0,0,1,109.91,190.24Z"/><path class="cls-1" d="M203.43,166.16a15.92,15.92,0,1,0,15.92,15.92A15.94,15.94,0,0,0,203.43,166.16Zm0,23.63a7.71,7.71,0,1,1,7.71-7.71A7.72,7.72,0,0,1,203.43,189.79Z"/><path class="cls-1" d="M125,96H109.38v13H96.43v15.59h12.95v13H125v-13h13V109H125Z"/><path class="cls-1" d="M210.51,99.91H198.69v-.15H170.37v35.92h40.14a13.26,13.26,0,0,0,13.24-13.24v-9.29A13.26,13.26,0,0,0,210.51,99.91Zm8.19,22.53a8.19,8.19,0,0,1-8.19,8.19H175.42V104.81h18.22V105h16.87a8.19,8.19,0,0,1,8.19,8.19Z"/></svg>