<svg id="Capa_1" data-name="Capa 1" xmlns="http://www.w3.org/2000/svg" viewBox="0 0 306.26 277.48"><defs><style>.cls-1{fill:#a6c751;}</style></defs><title>PaÌgina web final _ Dr.Edgar Salas</title><path class="cls-1" d="M193.34,91V83.59c0-10.32-9.65-18.71-21.51-18.71h-37.4c-11.86,0-21.5,8.39-21.5,18.71V91H89.72A18.5,18.5,0,0,0,71.24,109.5v84.62A18.5,18.5,0,0,0,89.72,212.6H216.54A18.5,18.5,0,0,0,235,194.12V109.5A18.5,18.5,0,0,0,216.54,91Zm34.07,103.1A10.87,10.87,0,0,1,216.54,205H89.72a10.87,10.87,0,0,1-10.87-10.87V109.5A10.88,10.88,0,0,1,89.72,98.62H216.54a10.88,10.88,0,0,1,10.87,10.88Zm-93-121.64h37.4c7.66,0,13.9,5,13.9,11.11V91H174.61V87.8c0-6.09-5.56-11-12.4-11H144.05c-6.84,0-12.4,4.95-12.4,11V91H120.53V83.59C120.53,77.46,126.77,72.48,134.43,72.48ZM167,91H139.25V87.8c0-1.86,2.2-3.43,4.8-3.43h18.16c2.6,0,4.8,1.57,4.8,3.43Z"/><path class="cls-1" d="M183.42,139.84h-16.8V123a2.28,2.28,0,0,0-2.28-2.28H145a2.29,2.29,0,0,0-2.29,2.28v16.8h-16.8a2.29,2.29,0,0,0-2.28,2.28V161.5a2.29,2.29,0,0,0,2.28,2.28h16.8v16.8a2.29,2.29,0,0,0,2.29,2.28h19.37a2.28,2.28,0,0,0,2.28-2.28v-16.8h16.8a2.29,2.29,0,0,0,2.28-2.28V142.12A2.29,2.29,0,0,0,183.42,139.84Zm-2.28,19.37h-16.8a2.29,2.29,0,0,0-2.28,2.29v16.8H147.25V161.5a2.29,2.29,0,0,0-2.28-2.29H128.16v-14.8H145a2.29,2.29,0,0,0,2.28-2.29v-16.8h14.81v16.8a2.29,2.29,0,0,0,2.28,2.29h16.8Z"/></svg>