<svg id="Capa_1" data-name="Capa 1" xmlns="http://www.w3.org/2000/svg" viewBox="0 0 306.26 277.48"><defs><style>.cls-1{fill:#fff;}</style></defs><title>PaÌgina web final _ Dr.Edgar Salas</title><path class="cls-1" d="M192.14,92.45V85.24c0-10-9.36-18.15-20.87-18.15H135c-11.5,0-20.86,8.14-20.86,18.15v7.21H91.62a18,18,0,0,0-17.93,17.92v82.1a18,18,0,0,0,17.93,17.92h123a17.94,17.94,0,0,0,17.93-17.92v-82.1a17.94,17.94,0,0,0-17.93-17.92Zm33.05,100A10.56,10.56,0,0,1,214.64,203h-123a10.56,10.56,0,0,1-10.55-10.54v-82.1A10.56,10.56,0,0,1,91.62,99.82h123a10.56,10.56,0,0,1,10.55,10.55ZM135,74.47h36.28c7.44,0,13.49,4.83,13.49,10.77v7.21H174V89.32c0-5.9-5.4-10.71-12-10.71H144.32c-6.63,0-12,4.81-12,10.71v3.13H121.51V85.24C121.51,79.3,127.56,74.47,135,74.47Zm31.6,18H139.67V89.32c0-1.8,2.13-3.33,4.65-3.33h17.62c2.52,0,4.65,1.53,4.65,3.33Z"/><path class="cls-1" d="M182.52,139.81h-16.3v-16.3a2.23,2.23,0,0,0-2.22-2.22H145.21a2.22,2.22,0,0,0-2.21,2.22v16.3H126.7a2.21,2.21,0,0,0-2.22,2.21v18.8A2.21,2.21,0,0,0,126.7,163H143v16.3a2.21,2.21,0,0,0,2.21,2.21H164a2.22,2.22,0,0,0,2.22-2.21V163h16.3a2.21,2.21,0,0,0,2.21-2.21V142A2.21,2.21,0,0,0,182.52,139.81Z"/></svg>