<svg id="Capa_1" data-name="Capa 1" xmlns="http://www.w3.org/2000/svg" viewBox="0 0 306.26 277.48"><defs><style>.cls-1{fill:#55aa27;}</style></defs><title>PaÌgina web final _ Dr.Edgar Salas</title><path class="cls-1" d="M112.2,219.08h81.87a18.49,18.49,0,0,0,18.47-18.47V160.18l2.76,2.76a5.93,5.93,0,0,0,8.4,0l7.33-7.32h0a19.33,19.33,0,0,0,0-27.31L174.55,71.84a4.69,4.69,0,0,0-.42-.47l-7.32-7.32a19.37,19.37,0,0,0-27.35,0l-7.32,7.32a4,4,0,0,0-.39.43L75.23,128.31a19.33,19.33,0,0,0,0,27.31l7.32,7.32a5.93,5.93,0,0,0,8.41,0l2.76-2.76v40.43A18.49,18.49,0,0,0,112.2,219.08Zm55.37-20.61H138.69V161.34h28.88Zm33.09,2.14a6.6,6.6,0,0,1-6.59,6.59h-15.3a5.92,5.92,0,0,0,.68-2.78v-49a5.93,5.93,0,0,0-5.94-5.94H132.75a5.94,5.94,0,0,0-6,5.94v49a5.82,5.82,0,0,0,.7,2.78H112.2a6.6,6.6,0,0,1-6.59-6.59V148.3l47.52-47.53,30.35,30.35h0l17.18,17.18ZM86.76,150.34l-3.12-3.12a7.44,7.44,0,0,1,0-10.51L140.55,79.8l.4-.43,6.91-6.92a7.66,7.66,0,0,1,10.55,0l6.88,6.88a4.6,4.6,0,0,0,.41.47l56.93,56.91a7.45,7.45,0,0,1,0,10.51l-3.12,3.12L157.34,88.17a6,6,0,0,0-8.41,0Z"/></svg>