<svg id="Capa_1" data-name="Capa 1" xmlns="http://www.w3.org/2000/svg" viewBox="0 0 306.26 277.48"><defs><style>.cls-1{fill:#55aa27;stroke:#55aa27;stroke-miterlimit:10;stroke-width:0.25px;}</style></defs><title>PaÌgina web final _ Dr.Edgar Salas</title><path class="cls-1" d="M87.56,127.18a12.64,12.64,0,0,0-2.82,8v67.75a12.69,12.69,0,0,0,12.68,12.67h1.72l.31.31.31-.31H206.51l.31.31.31-.31h1.72a12.69,12.69,0,0,0,12.67-12.67V135.14a12.64,12.64,0,0,0-2.82-8,3.36,3.36,0,0,0-1-2.42l-62.2-62.21a3.47,3.47,0,0,0-4.76,0l-62.2,62.21A3.36,3.36,0,0,0,87.56,127.18Zm17.83,82.75,31.78-31.78,13.58,13.57a3.36,3.36,0,0,0,4.76,0l13.58-13.57,31.78,31.78Zm10.2-61V125.28H191.8v22.53l-38.67,38.67Zm100.3-13.8v67.75a7.06,7.06,0,0,1-5.63,6.9l-36.4-36.41,41.3-41.3A7,7,0,0,1,215.89,135.14ZM153.13,69.7l57.44,57.44-14.72,14.72v-18.6a2,2,0,0,0-2-2H113.57a2,2,0,0,0-2,2V143L95.7,127.14ZM90.38,135.14a6.87,6.87,0,0,1,.73-3.06l41.3,41.3L96,209.79a7.06,7.06,0,0,1-5.62-6.9Z"/></svg>