<svg id="Capa_1" data-name="Capa 1" xmlns="http://www.w3.org/2000/svg" viewBox="0 0 306.26 277.48"><defs><style>.cls-1{fill:#a6c751;}</style></defs><title>PaÌgina web final _ Dr.Edgar Salas</title><path class="cls-1" d="M115.85,179.41a52.24,52.24,0,0,0,104.26-4.79V147.34a22.28,22.28,0,1,0-16.84-.28v27.56a35.39,35.39,0,0,1-70.46,4.69c25.6-4.18,43.38-26.65,43.38-56.49V59a8.38,8.38,0,0,0-13.5-6.67A11,11,0,1,0,157.23,73a11.48,11.48,0,0,0,2.13-.21v50c0,23.77-14.53,40.37-35.32,40.37s-35.31-16.6-35.31-40.37V73c.32,0,.64.06,1,.06a11.06,11.06,0,1,0-4.77-21,8.4,8.4,0,0,0-13,7v63.78C71.9,152.89,90,175.47,115.85,179.41ZM77,59a3.37,3.37,0,1,1,6.73,0v63.78c0,26.74,16.6,45.42,40.36,45.42s40.37-18.68,40.37-45.42V59a3.37,3.37,0,1,1,6.73,0v63.78C171.14,153,151.33,175,124,175S77,153,77,122.82ZM94,62a4.32,4.32,0,0,1-4.31,4.31,3.85,3.85,0,0,1-1-.12V59a8.27,8.27,0,0,0-.12-1.23,3.94,3.94,0,0,1,1.09-.16A4.33,4.33,0,0,1,94,62Zm58.91,0a4.29,4.29,0,0,1,6.51-3.7c0,.26-.07.51-.07.77V65.7A4.29,4.29,0,0,1,152.92,62Zm55.4,112.65V126.45a3.37,3.37,0,1,1,6.74,0v48.17A47.19,47.19,0,0,1,121,179.93q1.51.09,3.06.09c1.26,0,2.5-.06,3.73-.14a40.45,40.45,0,0,0,80.55-5.26Zm3.74-65.32a17.25,17.25,0,0,1,8.05,32.51V126.45a8.42,8.42,0,0,0-16.84,0v14.94a17.24,17.24,0,0,1,8.79-32.09Z"/></svg>