<svg id="Capa_1" data-name="Capa 1" xmlns="http://www.w3.org/2000/svg" viewBox="0 0 306.26 277.48"><defs><style>.cls-1{fill:#a6c751;}</style></defs><title>PaÌgina web final _ Dr.Edgar Salas</title><path class="cls-1" d="M115.25,180.06a53.08,53.08,0,0,0,105.94-4.86V147.48a22.65,22.65,0,1,0-17.11-.29v28a36,36,0,0,1-71.6,4.76c26-4.25,44.08-27.07,44.08-57.39V57.75A8.51,8.51,0,0,0,162.84,51a11.05,11.05,0,0,0-5.54-1.48,11.23,11.23,0,0,0,0,22.46,11,11,0,0,0,2.16-.22v50.83c0,24.14-14.76,41-35.89,41s-35.88-16.87-35.88-41V71.9c.33,0,.65.06,1,.06a11.23,11.23,0,1,0-4.84-21.35,8.54,8.54,0,0,0-13.24,7.14v64.82C70.59,153.12,88.93,176.07,115.25,180.06ZM75.72,57.75a3.42,3.42,0,1,1,6.84,0v64.82c0,27.17,16.87,46.14,41,46.14s41-19,41-46.14V57.75a3.42,3.42,0,0,1,6.84,0v64.82c0,30.7-20.13,53-47.86,53s-47.85-22.28-47.85-53ZM209.21,175.2V126.25a3.43,3.43,0,0,1,6.85,0V175.2a47.95,47.95,0,0,1-95.59,5.4c1,.05,2.06.09,3.1.09,1.28,0,2.54-.06,3.79-.15a41.1,41.1,0,0,0,81.85-5.34Z"/></svg>