<svg id="Capa_1" data-name="Capa 1" xmlns="http://www.w3.org/2000/svg" viewBox="0 0 306.26 277.48"><defs><style>.cls-1{fill:#767676;}</style></defs><title>PaÌgina web final _ Dr.Edgar Salas</title><path class="cls-1" d="M153.13,83c18.16,0,20.31.07,27.48.4,6.63.3,10.23,1.41,12.63,2.34a22.55,22.55,0,0,1,12.91,12.91c.93,2.4,2,6,2.34,12.63.33,7.17.4,9.32.4,27.48s-.07,20.31-.4,27.48c-.3,6.63-1.41,10.23-2.34,12.63a22.55,22.55,0,0,1-12.91,12.91c-2.4.93-6,2-12.63,2.34-7.17.33-9.32.39-27.48.39s-20.31-.06-27.48-.39c-6.63-.3-10.23-1.41-12.63-2.34a22.55,22.55,0,0,1-12.91-12.91c-.93-2.4-2-6-2.34-12.63-.33-7.17-.39-9.32-.39-27.48s.06-20.31.39-27.48c.31-6.63,1.41-10.23,2.34-12.63A22.55,22.55,0,0,1,113,85.72c2.4-.93,6-2,12.63-2.34,7.17-.33,9.32-.4,27.48-.4m0-12.25c-18.47,0-20.78.08-28,.41a50,50,0,0,0-16.51,3.16A34.79,34.79,0,0,0,88.69,94.19a50,50,0,0,0-3.16,16.51c-.33,7.25-.41,9.57-.41,28s.08,20.79.41,28a50,50,0,0,0,3.16,16.51,34.86,34.86,0,0,0,19.89,19.89,50,50,0,0,0,16.51,3.16c7.26.33,9.57.41,28,.41s20.79-.08,28-.41a50,50,0,0,0,16.51-3.16,34.79,34.79,0,0,0,19.89-19.89,50,50,0,0,0,3.16-16.51c.33-7.25.41-9.57.41-28s-.08-20.79-.41-28a50,50,0,0,0-3.16-16.51A34.71,34.71,0,0,0,197.68,74.3a50,50,0,0,0-16.51-3.16c-7.25-.33-9.57-.41-28-.41"/><path class="cls-1" d="M153.13,103.82a34.92,34.92,0,1,0,34.92,34.92,34.91,34.91,0,0,0-34.92-34.92m0,57.59a22.67,22.67,0,1,1,22.67-22.67,22.67,22.67,0,0,1-22.67,22.67"/><path class="cls-1" d="M197.6,102.43a8.17,8.17,0,1,1-8.16-8.16,8.17,8.17,0,0,1,8.16,8.16"/></svg>