<svg id="Capa_1" data-name="Capa 1" xmlns="http://www.w3.org/2000/svg" xmlns:xlink="http://www.w3.org/1999/xlink" viewBox="0 0 1129.54 303.19"><defs><style>.cls-1,.cls-2{fill:#55a927;}.cls-2{fill-rule:evenodd;}.cls-3{fill:url(#Degradado_sin_nombre_5);}.cls-4{fill:#047e2e;}.cls-5{fill:url(#Degradado_sin_nombre_5-2);}.cls-6{fill:url(#Degradado_sin_nombre_5-3);}.cls-7{fill:url(#Degradado_sin_nombre_5-4);}.cls-8{fill:#131716;}</style><linearGradient id="Degradado_sin_nombre_5" x1="117.06" y1="65.14" x2="160.02" y2="211.54" gradientUnits="userSpaceOnUse"><stop offset="0" stop-color="#55a927"/><stop offset="0.51" stop-color="#3b962c"/><stop offset="1" stop-color="#007f2e"/></linearGradient><linearGradient id="Degradado_sin_nombre_5-2" x1="52.4" y1="84.11" x2="95.36" y2="230.51" xlink:href="#Degradado_sin_nombre_5"/><linearGradient id="Degradado_sin_nombre_5-3" x1="217.14" y1="35.76" x2="260.1" y2="182.17" xlink:href="#Degradado_sin_nombre_5"/><linearGradient id="Degradado_sin_nombre_5-4" x1="72.42" y1="145.11" x2="81.95" y2="177.59" xlink:href="#Degradado_sin_nombre_5"/></defs><title>Página web final _ Dr.Edgar Salas</title><path class="cls-1" d="M123.54,89.45c-.14.51-.71,0-.28,1,.33.77,1.86.17,2.72-.85s2.73-1.35,3.3-2.2,1-.67,2.44-1.36,2.58-.84,2-1.69-3.59,0-4-.34-3.44,3.73-3.44,3.73S123.69,88.94,123.54,89.45Z"/><path class="cls-1" d="M110.64,77.93a12.8,12.8,0,0,1,2.72-1c.58-.18.29.84,1.58.84s2.87.51,3.3.34,1.72-2.2.71-2.37a7.71,7.71,0,0,1-3.44-2.37c-.85-1-2.86,1.35-4.73,2.2s-2.44.51-2.44,1.86C108.34,78.34,109.78,78.44,110.64,77.93Z"/><path class="cls-1" d="M118,79.46c-1.15.17-2.86.67-3.44,2s0,3.9-.15,4.91-.42,3.9.87,4.07,1.43-2.2,1.29-2.88-.14-3.56.43-4.07,1.29-2,2.87-2.2A2.28,2.28,0,0,1,122.25,84c-.14,1.53.29,3,.86,3s2.3-1.19,1.72-2.2.43-4.41.43-3.22a1.83,1.83,0,0,0,1.87,1.86c.72-.17-.72-3.22-1.72-3.39a11.48,11.48,0,0,0-3.44,0C121.54,80.3,119.1,79.29,118,79.46Z"/><path class="cls-2" d="M122.38,122.56c0,.44-.58.17,0,.88.44.54,1.53-.29,2-1.3s1.87-1.71,2.13-2.52.65-.77,1.64-1.64,1.87-1.27,1.22-1.82-2.87.83-3.29.66-1.9,3.76-1.9,3.76S122.37,122.12,122.38,122.56Z"/><path class="cls-2" d="M113.33,118.27c-.15,1.22.89,3.12,1,4s.55,3.22,1.62,3,.64-2.08.37-2.59-.93-2.81-.59-3.35.57-1.92,1.79-2.42a1.9,1.9,0,0,1,2.57,1.61c.23,1.25.93,2.37,1.39,2.24s1.56-1.48.87-2.16-.67-3.62-.4-2.67a1.53,1.53,0,0,0,1.92,1.06c.53-.3-1.31-2.41-2.15-2.31a9.13,9.13,0,0,0-2.75.79c-.31.23-2.49,0-3.37.38S113.48,117.06,113.33,118.27Z"/><path class="cls-2" d="M109.42,116.32a11,11,0,0,1,1.94-1.44c.42-.27.42.61,1.45.32s2.41-.26,2.72-.49.87-2.15,0-2.06a6.22,6.22,0,0,1-3.3-1.11c-.92-.61-2,1.75-3.27,2.85s-1.83,1-1.52,2C107.68,117.17,108.84,116.92,109.42,116.32Z"/><path class="cls-2" d="M110.46,90.61c-.19.5,1.66.6,1.81,0S110.94,89.4,110.46,90.61Z"/><path class="cls-2" d="M115.13,90.15c-1.1.76.34,1.46,1,.88S116.1,89.48,115.13,90.15Z"/><path class="cls-2" d="M124.19,64.19a1.44,1.44,0,0,0,1.52-1,13.86,13.86,0,0,0,.14-2.67s.52,1.8,1.46,1.92,2.86-1.11,3.44-1.18a23.51,23.51,0,0,1,5.09-.19c1.06.28,3.4,0,4.37,1s2.2,5,2.68,5.39S144,65.53,144.16,65s1.7-.68,2.37-.19,2.22,1.7,2.34,2.36.18,1.7-.34,1.46-1.19.05-1.12-.75-.23-2.38-.79-2.22l-1.05.3s-1.15-.06-1.46,1.5.64,2.75,1.13,2.61,1.61-.47,1.71-.11-.77,1.79-.52,2.4a16.13,16.13,0,0,0,2.19,2.89,5.19,5.19,0,0,0,2.45.37c.44,0-.93.46-.4,1s1.53,1.91,2.41,2,3.5,1.14,4,1.78,1.8-1.1,2.12-1.29S160,81,161,80.77s1.27-.56,1.88-1.61.09-2.08-.08-2.91-.41-1.44.57-1.43,1.34-.59,1-1.47-1.41-1.75,0-2.44,1.82-2.08,2.73-2.34,3.55-.53,3.7-1.07.57-3.57,1.31-3.88,2.89-.45,4.6-1.34,3.28-2.79,3.94-2.89,2.19-.53,1.54-.93S180.5,57,179.46,57.3s-2-2.43-1.75-2.51S180.85,55,181,56s1,2,2.31,1.2a1.43,1.43,0,0,0,.31-2.34,14.38,14.38,0,0,1-1.31-1.67c-.46-.56-1.7-2.35-.28-2.95s4.77.68,4.28-.74a9.3,9.3,0,0,1-.67-3.92c.19-.93.94-1.73.38-1.86s-1,.68-1.9-.53a2.81,2.81,0,0,1,.15-3.17l.3-.59a111.66,111.66,0,0,0-63.8,23l.21,0C122.15,62.33,123.55,64.08,124.19,64.19Z"/><path class="cls-2" d="M138.74,153.63c-.76.36-2.79-.23-4-.91s-2.91-.19-3.59,0a23,23,0,0,0-3.17,1.93c.27,1.39,1.3.65,2.68.26s3.7-1.36,4.36-.82,3,1,3.75,1.42,2.6,0,2.56-.59S139.51,153.26,138.74,153.63Z"/><path class="cls-2" d="M136.12,149.69c1.19-.64.15-1.66-.84-1.22S134.94,150.32,136.12,149.69Z"/><path class="cls-2" d="M139.07,159.52c-1,.52,0,2.87,1.09,2.06S140,159,139.07,159.52Z"/><path class="cls-2" d="M153.77,153.68c-1,.52,0,2.87,1.09,2.07S154.74,153.16,153.77,153.68Z"/><path class="cls-2" d="M148.11,153.42a5.85,5.85,0,0,0-2.59.9c-.65.33-2,2.92-2,2.92a13.09,13.09,0,0,0,2.13-.32c.81-.23,1.42.18,2.23.39s1.79-1.1,2.25-1.23,1.5,1.32,1.11-.47A3,3,0,0,0,148.11,153.42Z"/><path class="cls-1" d="M109.42,116.32a11,11,0,0,1,1.94-1.44c.42-.27.42.61,1.45.32s2.41-.26,2.72-.49.87-2.15,0-2.06a6.22,6.22,0,0,1-3.3-1.11c-.92-.61-2,1.75-3.27,2.85s-1.83,1-1.52,2C107.68,117.17,108.84,116.92,109.42,116.32Z"/><path class="cls-1" d="M122.38,122.56c0,.44-.58.17,0,.88.44.54,1.53-.29,2-1.3s1.87-1.71,2.13-2.52.65-.77,1.64-1.64,1.87-1.27,1.22-1.82-2.87.83-3.29.66-1.9,3.76-1.9,3.76S122.37,122.12,122.38,122.56Z"/><path class="cls-3" d="M159.79,212.05l.82.2a2,2,0,0,0-.74-.2Z"/><path class="cls-1" d="M113.33,118.27c-.15,1.22.89,3.12,1,4s.55,3.22,1.62,3,.64-2.08.37-2.59-.93-2.81-.59-3.35.57-1.92,1.79-2.42a1.9,1.9,0,0,1,2.57,1.61c.23,1.25.93,2.37,1.39,2.24s1.56-1.48.87-2.16-.67-3.62-.4-2.67a1.53,1.53,0,0,0,1.92,1.06c.53-.3-1.31-2.41-2.15-2.31a9.13,9.13,0,0,0-2.75.79c-.31.23-2.49,0-3.37.38S113.48,117.06,113.33,118.27Z"/><path class="cls-4" d="M205,45.13a51.11,51.11,0,0,0-4.88,25.66c.2,3.28.61,7.87.19,11.2a8.93,8.93,0,0,1-2.94,5.24c-1.15,1.12-4.62,2.94-4,4.89s3.12,4,4.76,5.23c2.47,1.91,4.92,3.83,7.46,5.65,2.2,1.58,9.55,3.55,12.43,3.47s2-7.74,2-9.41c0-4.91.19-9.83-.14-14.74s-1.59-9.26-2.73-13.94a65.7,65.7,0,0,0-5.55-14c-1.11-2.21-2.26-4.39-3.41-6.58C207.69,46.88,206.17,42.67,205,45.13Z"/><path class="cls-4" d="M273.87,98.61a16.71,16.71,0,0,1,6,10.87,14,14,0,0,1-.29,6.94,12.08,12.08,0,0,1-6.27,7c-1.69.73-4.48.88-4.84,3.22-.42,2.84,2.21,5.58,4.64,6.36,2.92.93,6.2-.25,8.58-2a17.92,17.92,0,0,0,7.34-12.41A24.81,24.81,0,0,0,284.7,103a.83.83,0,0,0-.08-.12c-2.31-3.38-5.48-6.45-9.43-7.58a8.34,8.34,0,0,0-3.78-.24,16,16,0,0,0-3.23,1,6.31,6.31,0,0,1,1.43.33A13.44,13.44,0,0,1,273.87,98.61Z"/><path class="cls-4" d="M252.61,169.35a5.34,5.34,0,0,1,1.75-1.14,1.94,1.94,0,0,1,2.34.61,23.61,23.61,0,0,1,5.55,7.89,64.84,64.84,0,0,1,2.8,9.25c.72,3.34,1.72,7.93-.31,11-1.2,1.8-3.35,2.83-5.19,3.86a41.87,41.87,0,0,1-6.59,3,16.48,16.48,0,0,1-2.27.69,1,1,0,0,1-.58,0c-.85-.41-.25-2.16-.09-2.79a31.33,31.33,0,0,0,.91-9.15,19.35,19.35,0,0,0-1.55-6.21c-.73-1.86-1.53-3.69-2.26-5.55a11.7,11.7,0,0,1-1.16-3.92c0-1.49,1.21-2.33,2.28-3.18A46.66,46.66,0,0,0,252.61,169.35Z"/><path class="cls-4" d="M242.08,170.39a3.48,3.48,0,0,1-.48-.53c-3.9-5-7.15-7.29-13.57-8.36-7.26-.89-15.42,1-22.19,3.18-2.94.95-6.17,2-9,.82a6,6,0,0,1-3.42-5.31c0-2.09,1.38-3.9,1.87-5.87a16.14,16.14,0,0,0,.29-6.67,11,11,0,0,0-1.8-4.6c-.92-1.3-2.75-2.47-2.55-4.26.13-1.24,1.25-2.08,2.13-3,2.18-2.18,3.13-6,1.17-8.34s-5.8-2.52-7.1-5.2c-1.47-3,1.56-6.43,1.36-9.79-.15-2.42-2-4.41-3.88-5.89a11.34,11.34,0,0,1-3-2.82c-2-3.31,3.21-7.08,6.24-6.8,2,.18,3.53,1.81,4.92,3.27a60.52,60.52,0,0,0,12.1,9.82c2.92,1.8,6.22,3.4,9.63,3,1.9-.21,3.94-1,5.63-.1s2.13,3,2.5,4.86a72.7,72.7,0,0,0,24.61,41.26c2.17,1.8,3.19,3.61,1.11,5.95-1,1.13-4.52,6.46-6.37,5.46A1.13,1.13,0,0,1,242.08,170.39Z"/><path class="cls-4" d="M295.65,186.58c.19-.57.37-1.14.55-1.71C296,185.44,295.84,186,295.65,186.58Z"/><path class="cls-4" d="M294.67,189.5c.35-1,.66-1.94,1-2.92-.32,1-.67,2-1,3Z"/><path class="cls-4" d="M208.18,40.94A36.79,36.79,0,0,1,211,44.81c1.05,1.39,2.09,2.8,3.1,4.24,4,5.66,7.45,11.79,9,18.57a15.94,15.94,0,0,0,1.3,4.19,4.23,4.23,0,0,0,3.47,2.38c2.08,0,3.73-2.07,5.82-2.07a4.8,4.8,0,0,1,3.45,2c1.67,2,2.56,4.72,3.46,7.14a92.81,92.81,0,0,0,8.45,17.21c1.06,1.68,2.48,3.5,4.46,3.54,1.7,0,3.1-1.29,4.14-2.63,2.1-2.73,3.62-6,6.34-8.11,3.15-2.45,7.52-3,11.4-2a27.12,27.12,0,0,1,10.33,5.43A112.37,112.37,0,0,0,208.18,40.94Z"/><path class="cls-5" d="M79.66,177l0,0h0Z"/><path class="cls-6" d="M272.77,226.33q1.59-1.77,3.1-3.62l-.09,0C274,225,272,227.11,270,229.19,271,228.26,271.89,227.32,272.77,226.33Z"/><polygon class="cls-7" points="77.19 161.35 77.19 161.36 77.19 161.36 77.19 161.35"/><path class="cls-4" d="M295.67,116.53a29.07,29.07,0,0,1-1.7,7.77,26.23,26.23,0,0,1-8.2,11.46c-3.83,3-9.19,5.75-14.23,4.22-6.71-2-10.85-7.49-10-14.54.17-1.41.54-3.23,1.59-4.24a8.78,8.78,0,0,1,3.38-1.63c2.33-.77,5.37-1.15,7.09-3.09,3.1-3.5-.88-12.09-3.95-14.48-3.45-2.69-7.9,4.33-10.42,6.3s-6.12.84-9-.42c-6.43-2.81-9.86-8.74-12.4-14.85-.78-1.89-1.46-3.83-2.06-5.78s-1.07-3.75-2.56-5.2a4.89,4.89,0,0,0-6.61-.16c-.82.81-.79,1.94-.87,3-.13,1.77-.21,3.54-.25,5.32a101.25,101.25,0,0,0,1.79,21.21c.33,1.75.71,3.48,1.14,5.21,3,12,8.34,23.73,17,32.61,2.84,2.92,6.13,5.36,9.15,8.08a57.83,57.83,0,0,1,12.1,16.09c2.23,4.28,3,8.7,4.09,13.34.29,1.18.49,2.38.77,3.57.18.78.28,2.85,1.42,2.85a2.18,2.18,0,0,0,.94-.31c1.73-.91,3.46-1.82,5.1-2.88,4.1-2.64,8.07-5.48,11.92-8.48,2.59-2,5.45-4,7.88-6.3a112.21,112.21,0,0,0-3.07-58.7Z"/><path class="cls-4" d="M156.72,249.22A156.52,156.52,0,0,1,89.6,203.7a112.34,112.34,0,0,0,138.65,53A156.74,156.74,0,0,1,156.72,249.22Z"/><path class="cls-1" d="M153.09,230.63a156.59,156.59,0,0,1-73.4-53.56h0c18.28,28,45.8,51.38,79.77,63.29a156.48,156.48,0,0,0,70.73,7.79,68,68,0,0,0,39.85-19c2-2.08,3.92-4.21,5.74-6.44A156.85,156.85,0,0,1,153.09,230.63Z"/><path class="cls-2" d="M198,218.09a18.8,18.8,0,0,1,3.7-4.58,10.64,10.64,0,0,1,1.83-1.41c1.26-.8,2.83-.95,3.05-1.9a34.45,34.45,0,0,1,.6-4c.41-1.14.78-2.86.25-3.44s-.14-3.92-.49-4.7-1.92-2.38-.67-4.5,2.39-5.08,2.31-5.79.48-3.95,0-5.27a5.34,5.34,0,0,0-3.15-2.76c-.91-.18-2.68.19-3.67-.71s-3.26-1.4-3.87-.93a3,3,0,0,1-2.79.65c-1.11-.41-2.83-.8-3.56-1.17a5.42,5.42,0,0,0-3-.16c-.69.2-.73-.38-1.29,1.54s.62,2.17-1.29,2.42.11-.47.68-2.39-.86-2.54-1.88-1.8,0,1.32-1.72,2.25-2.1-.42-1-1,2.78-2.42,2.62-3-.81-2-1.73-1.7-1.08-1.15-3-2.52-4.41-2.8-5.71-2.13-1.7,2.21-2.82.92-2-1.33-2.69-2-1.61.46-2.06.15l-.47-.31s-1.37.84-.92-.61.14-3.86-.17-3.62-.33,2.3-.94,2.32-.23-.37-1.61-.85-3,.72-2.82,1.4a2,2,0,0,1-.23,1.38,5.5,5.5,0,0,1-1-1c-.57-.72-2.22-.39-2.79.65s-1.84-1.67-2.41-1.5a3.31,3.31,0,0,0-1.75,2.55c-.22,1.39.51,3.08,0,3.08s-1.27-2.28-1.39-3.12.76-2.56-.24-2.57-1.9,2-2.44,2.31a5.76,5.76,0,0,0-1.78,2.86,6.29,6.29,0,0,1-1.1,2.66c-.57.61-1.72.49-1.6,0s-2.5-1.34-2.69-.7-1.1,1.34-2,2.18-2.14-.12-2.52-.59a4.27,4.27,0,0,1-1.5-2.21,14.53,14.53,0,0,1-.79-4.9c0-1.19-2.66-2.76-3.42-2.4s-1.29,1.55-2.13,1.64-.58-.27-1.84.09-.31-.2-.43-1.49-1.27-2.71-.32-4.16-.25-3.88-1.09-3.79-2.18,1.07-3.25,1.23a1.63,1.63,0,0,0-.87,2.59c.7,1.12,0,2.2-.37,2.16s-1-.58-2,.87-1.53,1.17-3.14.31-3.34-1.68-4.11-3.51-1.43-3.69-1.28-4.91-.4-3.11-1.17-3.18.34-1.85,1.06-2.36a5.59,5.59,0,0,0,1.71-2.69c.07-.6,1.26-.8,2.52-1.16a3.8,3.8,0,0,1,3,0c1.5.45,1.38-.83,1.26-1.24s.51-.9,1.92-1.16,2.77-1.94,3.23-1.64,1.61,1.74,2.15,1,.49-1.75,1.18-.2,2,3.84,3.12,4,1,1.9,2.11,1.74.75-3,.14-3.86-2.12-3.49-2.89-4-.29-2.48.7-3.35,2-4.16,2.55-5.21,3.12-2,2.12-2.91a7.5,7.5,0,0,1-2.23-2.63c-.23-.81.54-.74,1-.3s1.48-1.3.94-1.88-.69-1.56.15-1.65.83-1,.34-1.42.45-1.45,1.33-1.41,3.59-.5,3.78-1.15-1.77-1.33-2.08-2.42.79-2.42,1.56-2.79,1.83-.53,1.83-1,.83-1.86,1.22-.94.74,2.57,1.65,2.31,1.72-1.81,2-2,2.33-1.4,2.75-1.67,3.09-1.32,2.47-2.17a9.71,9.71,0,0,0-1.69-2c-.46-.31-.65.33-.91,1.14s-1.07,1-1.45.56-.51-2.19-1.16-1.42-.6,1.35-1.14,1.21a3.76,3.76,0,0,1-1.27-1,1.32,1.32,0,0,0-.19-2c-1.16-1-2.23-.39-3.18.62a7.09,7.09,0,0,1-2.13,1.63,10.13,10.13,0,0,0-1.83,1.41,7.47,7.47,0,0,1,.35-3.26c.57-1.05,3.14-1.41,3.6-2.42s2.64-.32,2.64-.32.6-1.35.8-.67.47,2.51,1.16,2.31,2.32-1.84,1.44-1.88.27-.92.88-1.83,2.4-.58,2.78-1,.37-1.72,1.18-2,1.49.89.58,2-.44,3.21-.86,3.91.12,1.28,1,.89a16.71,16.71,0,0,0,2.48-.86,1.24,1.24,0,0,1,1.68.24c.35.34.8-.67.8-.67s1.38-.83,2-.28.69-.64.15-1.22-1.2-1.12-1.77-1.84a1.26,1.26,0,0,0-1.95-.31c-.84.53-1.23,0-1.92-.19s-.87.84-.69-.24.34-1.42.45-2.33,1.17-2.82-.43-2.8-2.15-.12-2.61-.87a5.25,5.25,0,0,0-3.07-1.61c-.46.13-2.51,1.24-2.82.6a10.26,10.26,0,0,0-2.2-3c-.77-.51-3.8-2.86-4.22-3s-.84.1-1.41,2-1.4,2.46-2.32,2.28-1.68.5-2.79-.35,1.13-2,.59-2.54-2.45-.32-3.63-.12-2.41-1.07-4.17-.71a31.56,31.56,0,0,0-4.28,1.52c-.57.17-.3,1.11-.1,2.67s1.34,1.66.39,2.23-1.37.83-.18,1.08a10.74,10.74,0,0,1,3.18,2,2.83,2.83,0,0,1-.26,2.12c-.61.91-1.21,1.82-1.9,1.14s-1.92-.18-1.34.53,1.38.92,1.61,1.73,1.85,2.55,1.36,3.42-1.45.57-2,.87-1.45-.76-1.07-1.16-.78-2.27-.78-2.27-.71,2.7-1,1.45-1-1.19-1.23-2.14-1.65-2-2.61-1.41a7.57,7.57,0,0,1-3.9,1.23,12.07,12.07,0,0,1-4.82-.38c-1.87-.48-2.25.36-3,.72s-1-1.76-2.11-1.73-.54-.47-1.27-2.16-1.27-1.07.71-3.69,1.4-3.34,3.27-4.16,3,.45,2.82-.23-.59-4.52-.2-3.17,2.72.83,2,2.08-.15,1.21.66,1a6.71,6.71,0,0,0,2-1.6s1.56-1.48,2.25-.8.93,1.5,1.73,1.27,2.21-1.81.44-2.33-2.64-.12-3.86-.94-.89-.48-1.84.08-1.15-.11-1.49,0-.84.54-1.23.06-.08-.71,1.07-1a11.12,11.12,0,0,1,2.64-.32l1.52-1.17c.31-.23,2.06-1,1.37-2.15s-1.84-.79-2.3-1.1.41-1.14.91-1.58a6,6,0,0,1,2.18-.62s1.07-.16.91-.71-.58-1.15.23-.94.46,1.62,1.42,1.06a1.72,1.72,0,0,1,2-.12c.69.24.47,2.06,0,2.5s-1.25,1.24,0,1a21.4,21.4,0,0,0,2.22-.49,9,9,0,0,0,.64-2.09c.11-.91.84-.53,1.38-.4s2.37.06.92,1.06a3.41,3.41,0,0,0-1.75,2.55c-.15.78-.14,1.22-1.75,1.24s-2.37.39-2.52,1.16.7,2.88,1.2,2.44,1.06-.6,1.68-1.06,3.51-.72,4.16-1,2.22.83,2.49.45,1.19.25,2,.59.11-1.35,1.68-.63.88.92,1.57.73,2.22-.5,2.22-.5-.28-1.38.95-1.44,2.68,1.13,2.25.08-.43-1.92-1.58-2.47-2.79-.67-3.14-1-.73-.81-.46-1.18,2-.43,3.1,0,2.1.86,2.64.12,1.25-1.24,1.48-1.75.68-2,.68-2-3.59.45-4.25-.1a5.52,5.52,0,0,0-3-.9c-.45.13-1.44,1.44-2.29.22s-1.32-2.85-1.81-2.85-5.55.56-6.35.35-3.83-.36-5-.74-3-.9-3.91-.64c-.45.13-1.57.59-2.67,1A112.08,112.08,0,0,0,102.46,80a10.07,10.07,0,0,1,2.49-.39s.47,1.62,0,2.06-1.41.7-1.41,1.57-1,1.62-1.14,1.21.06-1.93-.93-2.37l-.48-.2a111.77,111.77,0,0,0-24.19,68,9,9,0,0,1,2,1.79c1.45,1.64,3.27,4.48,4,4.56s2.19.69,1.81,1.53-.87,2.6.16,2.3,1.18-1.07,2.33-.08,2.38,1.36,2.5,2.21,1.23.82,1.73.82,2.23,2.15,2.94.77-2.15-2.31-3-2.8-.62-2.16-2.65-3.19-2.12-2.18-3.58-2.93-2.64-1.44-1.77-2.72,1.53.59,2.34,1.67,3.92,2.84,5.26,3.63,4.27,4,4.84,3.88,2.8,1.54,2.8,1.54,1.42,1.5,1.23,2.14,1.2,2.44,2.16,2.75,4.46-.68,5.21,1.29c.2.51,1.52,2.94,2.78,2.58s2.73-1.52,3.19-1.22,2,1.64,2.38.49.41-1.58,1.44-1.88,1.76.52,2.53,1,2.88,1.82,3.64,1.45,2.15.56,2.6,0,1.57-.16,2.11,0a3.3,3.3,0,0,1,2.14,2.52c.35,1.66,2.12,1.53,2.93,1.74a11.4,11.4,0,0,1,2.76,1.4c.77.52,2.07.29,2.53.6s.92,1,1.76.08a2,2,0,0,0,.25-2.13,2.27,2.27,0,0,1,1.8-.22c.73.37,1.58,2,2,2.21a5.19,5.19,0,0,1,1.66,3.62c0,1.63.51,3.08.06,3.22s-1.32,1.91-1.89,2.51a6,6,0,0,0-.76,3.82,13.44,13.44,0,0,1,1.36,3.69c0,1-.53,2.22.24,3.61s3.3,1.11,3.8,2.43,3.08,3.81,3.7,5.09,2.3,2.5,2.84,4.4a24.19,24.19,0,0,0,1.07,2.27A156.74,156.74,0,0,0,198,218.09Z"/><path class="cls-4" d="M240.24,212.34c-.67.19-1.35.35-2,.53a156.49,156.49,0,0,1-82.22-.56q-4.8-1.34-9.57-3a156.61,156.61,0,0,1-69.23-48h0A160.68,160.68,0,0,0,113,199.21,157.23,157.23,0,0,0,265,219.33a52.37,52.37,0,0,0,30.34-31.89c.45-1.32.87-2.65,1.27-4A158.26,158.26,0,0,1,240.24,212.34Z"/><path class="cls-4" d="M201.23,40.55c-2.11,4.45-4.35,8.87-5.7,13.51a31.4,31.4,0,0,0-.61,14.16c.41,2.29,1.27,4.79,1.07,7.59a18.06,18.06,0,0,1-2.27,7.59c-2.52,4.65-6.49,8.1-10.45,11.07-1,.75-2,1.48-3.07,2.17a16.62,16.62,0,0,0-2.72,2.08,4.87,4.87,0,0,0-1,5.61c1,1.87,3.22,3.21,5,5a12.27,12.27,0,0,1,1.27,1.5,4.78,4.78,0,0,1,.76,2,9.41,9.41,0,0,1-.42,3.88c-.33,1.22-.75,2.38-1.09,3.54a8.43,8.43,0,0,0-.45,3.43,3.29,3.29,0,0,0,1.81,2.53c1,.53,2.24.94,3.34,1.52a8.17,8.17,0,0,1,3.11,2.44,2.7,2.7,0,0,1,.39,2.28,4.16,4.16,0,0,1-1.21,1.8c-.52.49-1,.8-1.37,1.22a6.62,6.62,0,0,0-1,1.29,3.87,3.87,0,0,0-.54,2.93c.43,2.08,2.17,3.82,3.61,6a10.37,10.37,0,0,1,1.7,3.76,7.24,7.24,0,0,1,.06,2.23,9.76,9.76,0,0,1-.59,2.05,24.91,24.91,0,0,0-1.91,6.68,7.92,7.92,0,0,0,1.92,5.81,9.16,9.16,0,0,0,5.24,3.35,16.86,16.86,0,0,0,6.68,0,53.94,53.94,0,0,0,6.91-1.77,60.31,60.31,0,0,1,7.33-2,25.85,25.85,0,0,1,15.42,2.15,13.82,13.82,0,0,1,6,5.58c1.37,2.52,1.58,5.12,2.32,7.26a9.33,9.33,0,0,0,.63,1.52,7.87,7.87,0,0,0,.39.7l.51.78a31.32,31.32,0,0,1,1.9,3.31,13.3,13.3,0,0,1,1.4,7.64,25.65,25.65,0,0,1-2.1,7.23c-1,2.29-2.14,4.46-3.25,6.67,1.64-4.64,3.67-9.25,3.88-14a11.47,11.47,0,0,0-1.73-6.56,30.64,30.64,0,0,0-2-3l-.55-.73c-.2-.29-.4-.58-.57-.88a12.87,12.87,0,0,1-.88-1.84c-.95-2.48-1.35-4.89-2.46-6.67a10.87,10.87,0,0,0-4.86-4.14,23.34,23.34,0,0,0-13.43-1.59c-4.51.79-9.17,3-14.33,3.64a20,20,0,0,1-8-.24,12.26,12.26,0,0,1-6.86-4.58,10.76,10.76,0,0,1-2.37-7.93,27,27,0,0,1,2.38-7.39,4.9,4.9,0,0,0,.52-2.91,8.08,8.08,0,0,0-1.18-3c-.59-1-1.3-2-2-3.09a10,10,0,0,1-1.51-3.76,5.65,5.65,0,0,1,1-4.1,12.29,12.29,0,0,1,2.81-2.67c.86-.73,1.28-1.56.73-2.41a7.2,7.2,0,0,0-2.61-2.1c-.52-.29-1.06-.55-1.62-.8a17.6,17.6,0,0,1-1.72-.82,4.34,4.34,0,0,1-2.27-3.27c-.23-2.74,1-5,1.51-7.38a7.86,7.86,0,0,0,.27-3.41,3.53,3.53,0,0,0-.62-1.43,9.25,9.25,0,0,0-1.17-1.26c-1.73-1.59-4.06-2.69-5.66-5.08a6.88,6.88,0,0,1,.85-8.06,18.65,18.65,0,0,1,3-2.61c1-.72,1.88-1.49,2.85-2.25,3.76-3,7.34-6.3,9.63-10.31a15.44,15.44,0,0,0,2.06-6.41c.25-2.15-.39-4.46-.76-7a30.77,30.77,0,0,1,1.54-15A70.33,70.33,0,0,1,201.23,40.55Z"/><path class="cls-8" d="M329.3,92h24.31A34.24,34.24,0,0,1,369,95.28a24.87,24.87,0,0,1,10.39,9.37,28.52,28.52,0,0,1,0,28.13A24.92,24.92,0,0,1,369,142.14a34.11,34.11,0,0,1-15.4,3.32H329.3ZM353,135.3q8,0,12.8-4.47t4.78-12.12q0-7.63-4.78-12.11T353,102.13H341.68V135.3Z"/><path class="cls-8" d="M426.53,145.46l-10.32-14.9H404.82v14.9H392.44V92H415.6a29.69,29.69,0,0,1,12.34,2.37,18.28,18.28,0,0,1,8.06,6.73,18.46,18.46,0,0,1,2.83,10.31,17.43,17.43,0,0,1-11,16.9l12,17.19Zm-3.14-41c-1.94-1.61-4.76-2.41-8.48-2.41H404.82V120.7h10.09c3.72,0,6.54-.82,8.48-2.45a9.62,9.62,0,0,0,0-13.79Z"/><path class="cls-8" d="M447,143.94a7.25,7.25,0,0,1-2.14-5.35,7,7,0,0,1,2.14-5.32,7.9,7.9,0,0,1,10.55,0,7,7,0,0,1,2.14,5.32,7.29,7.29,0,0,1-2.14,5.35,7.57,7.57,0,0,1-10.55,0Z"/><path class="cls-8" d="M531.7,135.53v9.93H490.27V92h40.44v9.94H502.58v11.61h24.84v9.64H502.58v12.38Z"/><path class="cls-8" d="M541.56,92h24.31a34.24,34.24,0,0,1,15.4,3.32,24.87,24.87,0,0,1,10.39,9.37,28.52,28.52,0,0,1,0,28.13,24.92,24.92,0,0,1-10.39,9.36,34.11,34.11,0,0,1-15.4,3.32H541.56Zm23.7,43.34q8,0,12.8-4.47t4.78-12.12q0-7.63-4.78-12.11t-12.8-4.47H553.94V135.3Z"/><path class="cls-8" d="M640.85,117.87h11.31v21.71a32.16,32.16,0,0,1-10.09,5,39.23,39.23,0,0,1-11.54,1.76,31.27,31.27,0,0,1-15-3.55A26.49,26.49,0,0,1,605.12,133a28.7,28.7,0,0,1,0-28.51,26.17,26.17,0,0,1,10.51-9.86A31.84,31.84,0,0,1,630.76,91a33.16,33.16,0,0,1,12.77,2.37,25.28,25.28,0,0,1,9.63,6.88l-7.95,7.34a18.38,18.38,0,0,0-13.84-6,18.84,18.84,0,0,0-9.09,2.14,15.4,15.4,0,0,0-6.2,6,19,19,0,0,0,0,17.81,15.73,15.73,0,0,0,6.16,6.08,18.25,18.25,0,0,0,9,2.17,20,20,0,0,0,9.63-2.29Z"/><path class="cls-8" d="M698.87,134H674l-4.73,11.46H656.6L680.45,92h12.23l23.92,53.5h-13Zm-3.9-9.4-8.49-20.49L678,124.6Z"/><path class="cls-8" d="M756.27,145.46,746,130.56H734.56v14.9H722.18V92h23.16a29.69,29.69,0,0,1,12.34,2.37,17.68,17.68,0,0,1,10.89,17,17.43,17.43,0,0,1-11,16.9l12,17.19Zm-3.14-41q-2.89-2.42-8.48-2.41H734.56V120.7h10.09q5.58,0,8.48-2.45a9.62,9.62,0,0,0,0-13.79Z"/><path class="cls-8" d="M805.3,144.66a28.44,28.44,0,0,1-9.51-4.47l4.2-9.33a28.31,28.31,0,0,0,8.18,4.06,30.71,30.71,0,0,0,9.48,1.53c3.51,0,6.11-.53,7.79-1.57a4.75,4.75,0,0,0,2.53-4.17,4,4,0,0,0-1.5-3.17,11.22,11.22,0,0,0-3.82-2q-2.32-.76-6.3-1.69a85.32,85.32,0,0,1-10-2.9,16.18,16.18,0,0,1-6.68-4.66,12.61,12.61,0,0,1-2.8-8.56,14.91,14.91,0,0,1,2.53-8.45,17,17,0,0,1,7.6-6A31,31,0,0,1,819.41,91a41.38,41.38,0,0,1,10,1.22A29.74,29.74,0,0,1,838,95.78l-3.82,9.4a29.89,29.89,0,0,0-14.83-4.2q-5.21,0-7.68,1.68a5.13,5.13,0,0,0-2.49,4.43,4.33,4.33,0,0,0,2.87,4.09,45.39,45.39,0,0,0,8.75,2.64,89.14,89.14,0,0,1,10,2.9,16.6,16.6,0,0,1,6.69,4.59q2.79,3.14,2.79,8.49a14.57,14.57,0,0,1-2.56,8.36,17.22,17.22,0,0,1-7.68,6,31.49,31.49,0,0,1-12.46,2.21A43.67,43.67,0,0,1,805.3,144.66Z"/><path class="cls-8" d="M884,134H859.15l-4.74,11.46H841.72L865.57,92H877.8l23.92,53.5h-13Zm-3.9-9.4-8.48-20.49-8.49,20.49Z"/><path class="cls-8" d="M907.3,92h12.39v43.42h26.83v10.08H907.3Z"/><path class="cls-8" d="M989.17,134H964.32l-4.73,11.46H946.9L970.75,92H983l23.92,53.5h-13Zm-3.9-9.4-8.49-20.49L968.3,124.6Z"/><path class="cls-8" d="M1017.79,144.66a28.44,28.44,0,0,1-9.51-4.47l4.2-9.33a28.31,28.31,0,0,0,8.18,4.06,30.71,30.71,0,0,0,9.48,1.53c3.51,0,6.11-.53,7.79-1.57a4.74,4.74,0,0,0,2.52-4.17,4,4,0,0,0-1.49-3.17,11.22,11.22,0,0,0-3.82-2q-2.33-.76-6.3-1.69a85.32,85.32,0,0,1-10-2.9,16.28,16.28,0,0,1-6.69-4.66,12.6,12.6,0,0,1-2.79-8.56,14.91,14.91,0,0,1,2.53-8.45,17,17,0,0,1,7.6-6A31,31,0,0,1,1031.89,91a41.4,41.4,0,0,1,10,1.22,29.74,29.74,0,0,1,8.56,3.52l-3.83,9.4a29.83,29.83,0,0,0-14.82-4.2q-5.21,0-7.68,1.68a5.13,5.13,0,0,0-2.49,4.43,4.33,4.33,0,0,0,2.87,4.09,45.17,45.17,0,0,0,8.75,2.64,89.14,89.14,0,0,1,10,2.9,16.6,16.6,0,0,1,6.69,4.59q2.79,3.14,2.79,8.49a14.57,14.57,0,0,1-2.56,8.36,17.22,17.22,0,0,1-7.68,6,31.49,31.49,0,0,1-12.46,2.21A43.67,43.67,0,0,1,1017.79,144.66Z"/><path class="cls-8" d="M349.64,207.74a17,17,0,0,1-6.58-6.36,18.61,18.61,0,0,1,0-18.21,17,17,0,0,1,6.6-6.36,19.46,19.46,0,0,1,9.44-2.3,19.67,19.67,0,0,1,7.44,1.36,15.24,15.24,0,0,1,5.76,4L369.07,183a13,13,0,0,0-9.78-4.12,14.17,14.17,0,0,0-7,1.74,12.62,12.62,0,0,0-4.88,4.79,14,14,0,0,0,0,13.65,12.62,12.62,0,0,0,4.88,4.79,14.17,14.17,0,0,0,7,1.74,13,13,0,0,0,9.78-4.17l3.23,3.12a15.39,15.39,0,0,1-5.78,4.07,19.52,19.52,0,0,1-7.47,1.39A19.28,19.28,0,0,1,349.64,207.74Z"/><path class="cls-8" d="M378.77,177.38a2.91,2.91,0,0,1-.91-2.18,3,3,0,0,1,.91-2.21,3.17,3.17,0,0,1,2.31-.92,3.22,3.22,0,0,1,2.31.87,2.86,2.86,0,0,1,.92,2.16,3.09,3.09,0,0,1-.92,2.26,3.14,3.14,0,0,1-2.31.92A3.19,3.19,0,0,1,378.77,177.38Zm-.07,6h4.76v26.31H378.7Z"/><path class="cls-8" d="M400.78,184.28a13.45,13.45,0,0,1,5.91-1.19v4.62a10,10,0,0,0-1.09-.05,8,8,0,0,0-6.08,2.31,9.14,9.14,0,0,0-2.21,6.57v13.11h-4.76V183.34h4.56v4.42A8.2,8.2,0,0,1,400.78,184.28Z"/><path class="cls-8" d="M437.41,183.34v26.31H432.9v-4a9.7,9.7,0,0,1-3.8,3.15,11.89,11.89,0,0,1-5.14,1.11c-3.5,0-6.27-1-8.28-2.9s-3-4.79-3-8.56V183.34h4.76v14.59q0,3.82,1.84,5.78a6.85,6.85,0,0,0,5.26,2,7.89,7.89,0,0,0,6-2.29,9,9,0,0,0,2.18-6.45v-13.6Z"/><path class="cls-8" d="M439.9,219.18a6.72,6.72,0,0,1-2.49-1.2l1.54-3.67a5.82,5.82,0,0,0,3.87,1.24,3.68,3.68,0,0,0,2.91-1.16,5.17,5.17,0,0,0,1-3.45v-27.6h4.77v27.5a9,9,0,0,1-2.19,6.4,8.08,8.08,0,0,1-6.2,2.33A12.63,12.63,0,0,1,439.9,219.18Zm6.92-41.8a2.92,2.92,0,0,1-.92-2.18,3,3,0,0,1,.92-2.21,3.14,3.14,0,0,1,2.31-.92,3.21,3.21,0,0,1,2.3.87,2.83,2.83,0,0,1,.92,2.16,3,3,0,0,1-.92,2.26,3.37,3.37,0,0,1-4.61,0Z"/><path class="cls-8" d="M478.53,185.77q2.91,2.68,2.91,8v15.89h-4.52v-3.48a7.53,7.53,0,0,1-3.4,2.81,13.06,13.06,0,0,1-5.23,1,11,11,0,0,1-7.08-2.13,7.34,7.34,0,0,1-.12-11.19q2.54-2.12,8-2.11h7.54v-.95a6.06,6.06,0,0,0-1.78-4.71,7.55,7.55,0,0,0-5.26-1.64,14,14,0,0,0-4.57.77,11.63,11.63,0,0,0-3.77,2.06l-2-3.57a14.31,14.31,0,0,1,4.87-2.51,20.24,20.24,0,0,1,6-.87C473.81,183.09,476.6,184,478.53,185.77Zm-4.74,19.29a7,7,0,0,0,2.88-3.46v-3.67h-7.34q-6.06,0-6.06,4.07a3.68,3.68,0,0,0,1.54,3.13,7.06,7.06,0,0,0,4.27,1.14A8.83,8.83,0,0,0,473.79,205.06Z"/><path class="cls-8" d="M512.28,186q3,2.91,3,8.52v15.14h-4.77v-14.6q0-3.81-1.84-5.75a6.89,6.89,0,0,0-5.26-1.94,8.17,8.17,0,0,0-6.1,2.26Q495,191.87,495,196.1v13.55h-4.77V183.34h4.57v4a9.29,9.29,0,0,1,3.89-3.13,13.76,13.76,0,0,1,5.59-1.09A10.88,10.88,0,0,1,512.28,186Z"/><path class="cls-8" d="M528.44,208.21a12.58,12.58,0,0,1-4.89-4.79,14.5,14.5,0,0,1,0-13.85,12.4,12.4,0,0,1,4.89-4.77,15.33,15.33,0,0,1,14.07,0,12.45,12.45,0,0,1,4.86,4.77,14.5,14.5,0,0,1,0,13.85,12.64,12.64,0,0,1-4.86,4.79,15.17,15.17,0,0,1-14.07,0Zm11.59-3.6a8.23,8.23,0,0,0,3.15-3.28,10.84,10.84,0,0,0,0-9.68A8.15,8.15,0,0,0,540,188.4a9.61,9.61,0,0,0-9.08,0,8.29,8.29,0,0,0-3.18,3.25,10.6,10.6,0,0,0,0,9.68,8.36,8.36,0,0,0,3.18,3.28,9.46,9.46,0,0,0,9.08,0Z"/><path class="cls-8" d="M593.9,172.82v36.83h-4.56v-4.17a10.36,10.36,0,0,1-4,3.32,12.47,12.47,0,0,1-5.36,1.14,13.78,13.78,0,0,1-6.85-1.69,12,12,0,0,1-4.74-4.73,14.16,14.16,0,0,1-1.72-7,14,14,0,0,1,1.72-7,12.13,12.13,0,0,1,4.74-4.71,13.78,13.78,0,0,1,6.85-1.69,12.65,12.65,0,0,1,5.21,1.07,10.09,10.09,0,0,1,4,3.15V172.82Zm-9,31.79a8.17,8.17,0,0,0,3.18-3.28,10.84,10.84,0,0,0,0-9.68,8.09,8.09,0,0,0-3.18-3.25,9.57,9.57,0,0,0-9.06,0,8.26,8.26,0,0,0-3.17,3.25,10.6,10.6,0,0,0,0,9.68,8.34,8.34,0,0,0,3.17,3.28,9.43,9.43,0,0,0,9.06,0Z"/><path class="cls-8" d="M626.61,198.08H605.27a8.23,8.23,0,0,0,3.05,5.58,10,10,0,0,0,6.48,2.11,9.74,9.74,0,0,0,7.59-3.17l2.63,3.08a11.62,11.62,0,0,1-4.44,3.17,16.78,16.78,0,0,1-13.33-.62,12.26,12.26,0,0,1-5-4.79,14.65,14.65,0,0,1,0-13.85,12.32,12.32,0,0,1,4.71-4.79,13.45,13.45,0,0,1,6.78-1.71,13.17,13.17,0,0,1,6.72,1.71,12.1,12.1,0,0,1,4.62,4.79,14.6,14.6,0,0,1,1.66,7A12.56,12.56,0,0,1,626.61,198.08ZM608,189.2a8.37,8.37,0,0,0-2.7,5.46h16.87a8.44,8.44,0,0,0-2.7-5.44,8.88,8.88,0,0,0-11.47,0Z"/><path class="cls-8" d="M653.49,207.74a17,17,0,0,1-6.58-6.36,18.61,18.61,0,0,1,0-18.21,17,17,0,0,1,6.6-6.36,19.42,19.42,0,0,1,9.43-2.3,19.68,19.68,0,0,1,7.45,1.36,15.24,15.24,0,0,1,5.76,4L672.92,183a13,13,0,0,0-9.78-4.12,14.17,14.17,0,0,0-7,1.74,12.72,12.72,0,0,0-4.89,4.79,14.11,14.11,0,0,0,0,13.65,12.72,12.72,0,0,0,4.89,4.79,14.17,14.17,0,0,0,7,1.74,13,13,0,0,0,9.78-4.17l3.23,3.12a15.35,15.35,0,0,1-5.79,4.07,19.45,19.45,0,0,1-7.47,1.39A19.24,19.24,0,0,1,653.49,207.74Z"/><path class="cls-8" d="M700.14,185.77q2.91,2.68,2.91,8v15.89h-4.52v-3.48a7.53,7.53,0,0,1-3.4,2.81,13.07,13.07,0,0,1-5.24,1,11,11,0,0,1-7.07-2.13,7.32,7.32,0,0,1-.12-11.19q2.52-2.12,8-2.11h7.54v-.95a6.06,6.06,0,0,0-1.78-4.71,7.58,7.58,0,0,0-5.27-1.64,14,14,0,0,0-4.56.77,11.79,11.79,0,0,0-3.78,2.06l-2-3.57a14.35,14.35,0,0,1,4.86-2.51,20.36,20.36,0,0,1,6-.87C695.42,183.09,698.21,184,700.14,185.77Zm-4.74,19.29a7,7,0,0,0,2.88-3.46v-3.67h-7.34q-6.06,0-6.06,4.07a3.68,3.68,0,0,0,1.54,3.13,7.06,7.06,0,0,0,4.27,1.14A8.83,8.83,0,0,0,695.4,205.06Z"/><path class="cls-8" d="M732.68,184.78a12.17,12.17,0,0,1,4.73,4.71,13.92,13.92,0,0,1,1.72,7,14.06,14.06,0,0,1-1.72,7,12.09,12.09,0,0,1-4.73,4.73,13.8,13.8,0,0,1-6.85,1.69,12.44,12.44,0,0,1-5.36-1.14,10.22,10.22,0,0,1-4-3.32v4.17h-4.57V172.82h4.76v14.49a10.16,10.16,0,0,1,4-3.15,12.66,12.66,0,0,1,5.22-1.07A13.8,13.8,0,0,1,732.68,184.78ZM730,204.61a8.43,8.43,0,0,0,3.18-3.28,10.68,10.68,0,0,0,0-9.68A8.35,8.35,0,0,0,730,188.4a9.57,9.57,0,0,0-9.06,0,8.13,8.13,0,0,0-3.17,3.25,10.76,10.76,0,0,0,0,9.68,8.21,8.21,0,0,0,3.17,3.28,9.43,9.43,0,0,0,9.06,0Z"/><path class="cls-8" d="M769.4,198.08H748.06a8.26,8.26,0,0,0,3.05,5.58,10,10,0,0,0,6.48,2.11,9.75,9.75,0,0,0,7.6-3.17l2.63,3.08a11.65,11.65,0,0,1-4.45,3.17,16.76,16.76,0,0,1-13.32-.62,12.19,12.19,0,0,1-5-4.79,13.78,13.78,0,0,1-1.76-6.95,14,14,0,0,1,1.71-6.9,12.28,12.28,0,0,1,4.72-4.79,13.41,13.41,0,0,1,6.77-1.71,13.14,13.14,0,0,1,6.72,1.71,12.1,12.1,0,0,1,4.62,4.79,14.6,14.6,0,0,1,1.66,7A12.56,12.56,0,0,1,769.4,198.08Zm-18.63-8.88a8.43,8.43,0,0,0-2.71,5.46h16.88a8.5,8.5,0,0,0-2.71-5.44,8.87,8.87,0,0,0-11.46,0Z"/><path class="cls-8" d="M795.36,205.72v3.93h-22v-3.08l15.54-19.31H773.62v-3.92H795v3.13l-15.53,19.25Z"/><path class="cls-8" d="M819.66,185.77q2.9,2.68,2.9,8v15.89H818v-3.48a7.5,7.5,0,0,1-3.39,2.81,13.11,13.11,0,0,1-5.24,1,11,11,0,0,1-7.07-2.13,7.33,7.33,0,0,1-.13-11.19q2.53-2.12,8-2.11h7.55v-.95a6.07,6.07,0,0,0-1.79-4.71,7.55,7.55,0,0,0-5.26-1.64,14,14,0,0,0-4.57.77,11.74,11.74,0,0,0-3.77,2.06l-2-3.57a14.31,14.31,0,0,1,4.87-2.51,20.34,20.34,0,0,1,6-.87C814.93,183.09,817.72,184,819.66,185.77Zm-4.74,19.29a7.06,7.06,0,0,0,2.88-3.46v-3.67h-7.35c-4,0-6.05,1.36-6.05,4.07a3.7,3.7,0,0,0,1.53,3.13,7.06,7.06,0,0,0,4.27,1.14A8.89,8.89,0,0,0,814.92,205.06Z"/><path class="cls-8" d="M868,183.34l-12.75,28.94a13,13,0,0,1-3.95,5.65,8.92,8.92,0,0,1-5.43,1.64,11.35,11.35,0,0,1-3.75-.62,7.64,7.64,0,0,1-3-1.81l2-3.57a6.64,6.64,0,0,0,4.72,1.93,4.5,4.5,0,0,0,2.9-.92,7.79,7.79,0,0,0,2.11-3.15l.84-1.83-11.61-26.26h5l9.18,21,9.09-21Z"/><path class="cls-8" d="M892.67,207.74a17,17,0,0,1-6.58-6.36,18.61,18.61,0,0,1,0-18.21,17,17,0,0,1,6.6-6.36,19.42,19.42,0,0,1,9.43-2.3,19.72,19.72,0,0,1,7.45,1.36,15.28,15.28,0,0,1,5.75,4L912.1,183a13,13,0,0,0-9.78-4.12,14.17,14.17,0,0,0-7,1.74,12.72,12.72,0,0,0-4.89,4.79,14.11,14.11,0,0,0,0,13.65,12.72,12.72,0,0,0,4.89,4.79,14.17,14.17,0,0,0,7,1.74,13,13,0,0,0,9.78-4.17l3.22,3.12a15.31,15.31,0,0,1-5.78,4.07,19.52,19.52,0,0,1-7.47,1.39A19.24,19.24,0,0,1,892.67,207.74Z"/><path class="cls-8" d="M945.4,183.34v26.31h-4.52v-4a9.67,9.67,0,0,1-3.79,3.15,12,12,0,0,1-5.14,1.11c-3.51,0-6.27-1-8.29-2.9s-3-4.79-3-8.56V183.34h4.77v14.59q0,3.82,1.83,5.78a6.87,6.87,0,0,0,5.27,2,7.85,7.85,0,0,0,6-2.29,8.94,8.94,0,0,0,2.19-6.45v-13.6Z"/><path class="cls-8" d="M978.16,198.08H956.81a8.24,8.24,0,0,0,3.06,5.58,9.91,9.91,0,0,0,6.47,2.11,9.75,9.75,0,0,0,7.6-3.17l2.63,3.08a11.62,11.62,0,0,1-4.44,3.17,16.78,16.78,0,0,1-13.33-.62,12.26,12.26,0,0,1-5-4.79,13.78,13.78,0,0,1-1.76-6.95,14,14,0,0,1,1.71-6.9,12.35,12.35,0,0,1,4.72-4.79,13.44,13.44,0,0,1,6.77-1.71A13.18,13.18,0,0,1,972,184.8a12.08,12.08,0,0,1,4.61,4.79,14.6,14.6,0,0,1,1.67,7C978.26,197,978.22,197.49,978.16,198.08Zm-18.64-8.88a8.43,8.43,0,0,0-2.71,5.46h16.88a8.5,8.5,0,0,0-2.71-5.44,8.87,8.87,0,0,0-11.46,0Z"/><path class="cls-8" d="M984.86,172.82h4.76v36.83h-4.76Z"/><path class="cls-8" d="M998.71,172.82h4.76v36.83h-4.76Z"/><path class="cls-8" d="M1016.77,208.21a12.65,12.65,0,0,1-4.89-4.79,14.5,14.5,0,0,1,0-13.85,12.46,12.46,0,0,1,4.89-4.77,15.33,15.33,0,0,1,14.07,0,12.45,12.45,0,0,1,4.86,4.77,14.43,14.43,0,0,1,0,13.85,12.64,12.64,0,0,1-4.86,4.79,15.17,15.17,0,0,1-14.07,0Zm11.59-3.6a8.23,8.23,0,0,0,3.15-3.28,10.84,10.84,0,0,0,0-9.68,8.15,8.15,0,0,0-3.15-3.25,9.61,9.61,0,0,0-9.08,0,8.35,8.35,0,0,0-3.18,3.25,10.6,10.6,0,0,0,0,9.68,8.43,8.43,0,0,0,3.18,3.28,9.46,9.46,0,0,0,9.08,0Z"/></svg>