<svg id="Capa_1" data-name="Capa 1" xmlns="http://www.w3.org/2000/svg" viewBox="0 0 306.26 277.48"><defs><style>.cls-1{fill:#a6c751;stroke:#a6c751;stroke-miterlimit:10;stroke-width:0.5px;}</style></defs><title>PaÌgina web final _ Dr.Edgar Salas</title><path class="cls-1" d="M184.34,78c-.8-.11-1.59-.19-2.39-.24-5.67-2.3-15.77-3.92-27.61,5.2l-.28.24-3.88,3.9c-14.64-9.92-26.26-3.81-29.53-1.65L106.08,70.91,60.13,116.85l17.42,17.42c.13,7.81,2.91,15.81,8.3,23.9a63.8,63.8,0,0,0,7.63,9.25c3.59,3.64,7.23,7.23,10.84,10.85-3.92,5.71-2.23,10.43,1.85,14.69,4.24,4.41,8.14,4.93,13.89,3.27a.11.11,0,0,1,.14.05c4.12,6.17,7.93,9.16,12,9.49,1.7,1.65,3.39,3.33,5.1,5a15.94,15.94,0,0,0,18.91,2.49c2.65-1.52,3.09-2.77,4.45-4.91C171,217,177.93,217.16,186.06,205a.11.11,0,0,1,.14-.05c5.74,1.66,9.65,1.14,13.88-3.27s6-9.51,1.14-15.67c0-.05-1.28-1.67-1.22-1.67a9.65,9.65,0,0,0,7.67-4c4-5.17,3.75-10.61-.54-15.95,1.88-1.89,3.77-3.76,5.65-5.65a63.09,63.09,0,0,0,7.62-9.25c5.4-8.09,8.17-16.09,8.31-23.9l17.42-17.42L200.18,62.2ZM96.27,160.75C91,155.17,87,149,85.29,142a31.64,31.64,0,0,1-.81-4.8,32.83,32.83,0,0,1-.13-4.11L66.68,115.43l38-38,12.17,12.17.81.81,0,.12,5.88.49.38-1c2.32-1.58,12-6.92,24.81,2.87l17,17.09a4.56,4.56,0,0,1,0,6.44l-1.12,1.12a4.55,4.55,0,0,1-6.44,0l-17.4-17.48-4.23,3,4.7,5.52,2,2.05-6,6a3.4,3.4,0,0,0-.93,1.6l-.29.31q-17.55,17.55-35.09,35.11A18,18,0,0,0,96.27,160.75Zm56.39,47.38a5.79,5.79,0,0,1-4.74,1.9c-2.78-.21-4.7-2.33-6-3.66l-2.46-2.44a37.55,37.55,0,0,0,6.16-4.31c1.35,2.14,1.8,3.39,4.44,4.9a14.66,14.66,0,0,0,3.71,1.52A4.35,4.35,0,0,1,152.66,208.13Zm25.07-2.35c-2.61,3.07-5.59,3.34-9.41-.2l-1.76-1.66a16.38,16.38,0,0,0,2.38-1.88c2.18-2.11,4.33-4.24,6.51-6.36l.69.69C179.73,200,180.21,202.88,177.73,205.78Zm18.17-9.5c-2.63,3.59-6.66,3.67-10.27.08L180.26,191c3-2.89,5.92-5.76,8.86-8.66,1.66,1.66,3.34,3.32,5,5C197.33,190.54,197.87,193.58,195.9,196.28ZM203.26,175a6.09,6.09,0,0,1-8.48,3.19,9.67,9.67,0,0,1-.9-.57c2.85-2.82,5.68-5.67,8.51-8.51A5.56,5.56,0,0,1,203.26,175Zm36.31-68.27-17.66,17.67a34.88,34.88,0,0,1-.12,4.11,34.36,34.36,0,0,1-.82,4.8c-1.74,7-5.73,13.22-11.06,18.81-7.21,7.59-14.77,14.86-22.18,22.26-7.77,7.78-15.51,15.58-23.34,23.3-1.35,1.32-3.28,3.44-6,3.65a5.8,5.8,0,0,1-4.75-1.9c-1.2-1.14-1.59-4-1.12-5.83.5-2,2.23-3.72,3.74-5.26,3.54-3.63,7.15-7.19,10.73-10.78,1.74-1.75,3.48-3.5,5.19-5.28s7.18-5.88,4.18-8.68c-2.75-2.58-6.69,2.39-8.35,4s-3.49,3.51-5.26,5.24c-8.22,8-16.34,16.17-24.77,24-3.81,3.54-6.8,3.27-9.4.2-2.47-2.9-2-5.81,1.59-9.4q14-14,28-28c1.31-1.32,2.45-2.17,2.68-4.17.18-1.48-.36-2.78-1.88-3-2.57-.39-3.68.59-5.33,2.24q-16.47,16.45-32.93,32.91c-3.61,3.59-7.64,3.51-10.28-.08-2-2.7-1.42-5.74,1.79-9q16.69-16.77,33.47-33.47c1.82-1.81,3.26-3.85,1-5.94s-4-.22-5.61,1.41q-12.87,12.91-25.79,25.78a17.74,17.74,0,0,1-3.75,3.08,6.1,6.1,0,0,1-8.49-3.19c-1.37-3.44.4-5.62,2.57-7.79q21.41-21.33,42.68-42.77l5.84,5.86a10.21,10.21,0,0,0,14.42,0l1.12-1.12a10.15,10.15,0,0,0,.35-14L157,93.37h0l-2.55-2.55,3.46-3.48c5.36-4.08,10.14-5.51,14.08-5.7,7.21-.66,13.59,3.11,13.59,3.11l3.83-3.83L201.6,68.74Z"/></svg>