<svg id="Capa_1" data-name="Capa 1" xmlns="http://www.w3.org/2000/svg" viewBox="0 0 306.26 277.48"><defs><style>.cls-1{fill:#a6c751;}</style></defs><title>PaÌgina web final _ Dr.Edgar Salas</title><path class="cls-1" d="M71.71,127.12A132.3,132.3,0,0,0,187,223.77c1.24.11,2.48.17,3.71.17a35.81,35.81,0,0,0,14.59-3,29.86,29.86,0,0,0,3.34-1.72,26.19,26.19,0,0,0,6.38-5.15l5-5.53a26.09,26.09,0,0,0,2.84-3.86,25.66,25.66,0,0,0,3.19-7.62,26.2,26.2,0,0,0-7.88-25.48h0L209.74,164a26.15,26.15,0,0,0-37,1.84l-5,5.54a26,26,0,0,0-4.71,7.4,93.73,93.73,0,0,1-46.94-43A26.19,26.19,0,0,0,126,129l5-5.53a26,26,0,0,0,6.73-18.86c0-.68-.12-1.35-.2-2a26.06,26.06,0,0,0-8.39-16.08l-8.44-7.63a26.11,26.11,0,0,0-17.54-6.77,25.54,25.54,0,0,0-4.45.42,26.19,26.19,0,0,0-12.65,6,23.73,23.73,0,0,0-2.31,2.23l-5,5.52a26.85,26.85,0,0,0-2,2.46c-5.49,4.85-9.84,15.54-7.28,28.75C70.05,120.58,70.79,123.75,71.71,127.12ZM81,93.33a2.57,2.57,0,0,0,.29-.28l.23-.25.26-.33a18.87,18.87,0,0,1,1.59-2l5-5.54a19.28,19.28,0,0,1,1.75-1.68,20,20,0,0,1,9.61-4.54,20.28,20.28,0,0,1,3.38-.32,19.84,19.84,0,0,1,13.31,5.13l8.44,7.64a19.55,19.55,0,0,1,6.37,12.21c.06.5.13,1,.15,1.53a19.76,19.76,0,0,1-5.1,14.32l-5,5.53a19.84,19.84,0,0,1-9,5.7l-1.54.47a3.15,3.15,0,0,0-1.89,4.42l.71,1.41a100,100,0,0,0,52.9,48.54l1.33.53a3.12,3.12,0,0,0,2.47-.09,3.15,3.15,0,0,0,1.65-1.84l.45-1.34a19.57,19.57,0,0,1,4.1-7l5-5.54a19.89,19.89,0,0,1,14.74-6.54,19.35,19.35,0,0,1,4.13.46,19.83,19.83,0,0,1,9.18,4.68l8.45,7.64a20.15,20.15,0,0,1,1.41,28l-5,5.54a20.25,20.25,0,0,1-4.93,3.95,23.57,23.57,0,0,1-2.69,1.39,30.41,30.41,0,0,1-15.17,2.29,126,126,0,0,1-109.78-92c-.88-3.21-1.58-6.23-2.15-9.21C73.4,104.71,77.62,96.22,81,93.33Z"/><path class="cls-1" d="M237.56,134a80.59,80.59,0,0,0-80.49-80.5,6.94,6.94,0,1,0,0,13.88A66.69,66.69,0,0,1,223.69,134a6.94,6.94,0,1,0,13.87,0Zm-10.72,0a69.85,69.85,0,0,0-69.77-69.77,3.79,3.79,0,1,1,0-7.58A77.43,77.43,0,0,1,234.41,134a3.79,3.79,0,1,1-7.57,0Z"/><path class="cls-1" d="M197.44,134.9a6.94,6.94,0,1,0,13.87,0,55.17,55.17,0,0,0-55.1-55.11,6.94,6.94,0,0,0,0,13.88A41.28,41.28,0,0,1,197.44,134.9Zm-45-48.17a3.79,3.79,0,0,1,3.79-3.79,52,52,0,0,1,51.95,52,3.79,3.79,0,1,1-7.57,0,44.43,44.43,0,0,0-44.38-44.38A3.79,3.79,0,0,1,152.42,86.73Z"/></svg>