<svg id="Capa_1" data-name="Capa 1" xmlns="http://www.w3.org/2000/svg" viewBox="0 0 306.26 277.48"><defs><style>.cls-1{fill:#55aa27;stroke:#55aa27;stroke-miterlimit:10;stroke-width:0.25px;}</style></defs><title>PaÌgina web final _ Dr.Edgar Salas</title><path class="cls-1" d="M195.38,58.4H110.89c-8,0-14.47,6.24-14.47,13.91V205.17c0,7.67,6.49,13.91,14.47,13.91h84.49c8,0,14.46-6.24,14.46-13.91V72.31C209.84,64.64,203.35,58.4,195.38,58.4Zm7.75,146.77a7.61,7.61,0,0,1-7.75,7.45H110.89a7.62,7.62,0,0,1-7.76-7.45V72.31a7.62,7.62,0,0,1,7.76-7.46h84.49a7.62,7.62,0,0,1,7.75,7.46Z"/><path class="cls-1" d="M153.13,68.21a1.5,1.5,0,1,0-1.56-1.5A1.53,1.53,0,0,0,153.13,68.21Z"/><path class="cls-1" d="M147.31,74.24H159a1.49,1.49,0,1,0,0-3H147.31a1.49,1.49,0,1,0,0,3Z"/><path class="cls-1" d="M142.1,73.91a1.16,1.16,0,1,0-1.21-1.16A1.19,1.19,0,0,0,142.1,73.91Z"/><path class="cls-1" d="M153.13,193.83a9.1,9.1,0,1,0,9.46,9.1A9.29,9.29,0,0,0,153.13,193.83Zm0,15a5.87,5.87,0,1,1,6.1-5.86A6,6,0,0,1,153.13,208.79Z"/><path class="cls-1" d="M192.76,77.46H113.5a1.64,1.64,0,0,0-1.68,1.61V192a1.64,1.64,0,0,0,1.68,1.61h79.26a1.64,1.64,0,0,0,1.68-1.61V79.07A1.64,1.64,0,0,0,192.76,77.46Zm-1.67,112.91H115.18V80.68h75.91Z"/></svg>