<svg id="Capa_1" data-name="Capa 1" xmlns="http://www.w3.org/2000/svg" viewBox="0 0 306.26 277.48"><defs><style>.cls-1{fill:#767676;}</style></defs><title>PaÌgina web final _ Dr.Edgar Salas</title><path class="cls-1" d="M77.46,186.28a87.88,87.88,0,0,0,47.6,13.95c57.64,0,90.21-48.69,88.25-92.36A63,63,0,0,0,228.8,91.8,62.13,62.13,0,0,1,211,96.69a31.09,31.09,0,0,0,13.64-17.18,62,62,0,0,1-19.71,7.54A31.07,31.07,0,0,0,152,115.37,88.14,88.14,0,0,1,88,82.92a31.09,31.09,0,0,0,9.61,41.46,30.9,30.9,0,0,1-14.07-3.89,31.09,31.09,0,0,0,24.91,30.84,31.1,31.1,0,0,1-14,.53,31.07,31.07,0,0,0,29,21.57A62.39,62.39,0,0,1,77.46,186.28Z"/></svg>