<svg id="Capa_1" data-name="Capa 1" xmlns="http://www.w3.org/2000/svg" viewBox="0 0 306.26 277.48"><defs><style>.cls-1{fill:#767676;}</style></defs><title>PaÌgina web final _ Dr.Edgar Salas</title><path class="cls-1" d="M227.9,100.93A19.6,19.6,0,0,0,214.1,87c-12.17-3.28-61-3.28-61-3.28s-48.8,0-61,3.28a19.62,19.62,0,0,0-13.8,13.89c-3.26,12.25-3.26,37.81-3.26,37.81s0,25.56,3.26,37.81a19.61,19.61,0,0,0,13.8,13.88c12.17,3.28,61,3.28,61,3.28s48.8,0,61-3.28a19.59,19.59,0,0,0,13.8-13.88c3.26-12.25,3.26-37.81,3.26-37.81S231.16,113.18,227.9,100.93Zm-90.73,61V115.53L178,138.74Z"/></svg>